<svg width="21" height="20" viewBox="0 0 21 20" fill="none" xmlns="http://www.w3.org/2000/svg">
<path fill-rule="evenodd" clip-rule="evenodd" d="M13.036 17.2366C12.6144 17.5933 12.5618 18.2243 12.9185 18.6459C13.2753 19.0675 13.9062 19.1201 14.3279 18.7634L18.146 15.5326L19.0482 14.7692L18.146 14.0058L14.3279 10.7751C13.9062 10.4183 13.2753 10.4709 12.9185 10.8925C12.5618 11.3141 12.6144 11.9451 13.036 12.3018L14.7701 13.7692L3.50002 13.7692C2.94774 13.7692 2.50002 14.2169 2.50002 14.7692C2.50002 15.3215 2.94774 15.7692 3.50002 15.7692L14.7702 15.7692L13.036 17.2366Z" fill="black"/>
<path fill-rule="evenodd" clip-rule="evenodd" d="M7.96406 2.76338C8.38566 2.40663 8.43825 1.77565 8.0815 1.35405C7.72476 0.93244 7.09378 0.879859 6.67217 1.2366L2.85399 4.46738L1.95181 5.23076L2.85399 5.99415L6.67217 9.22491C7.09378 9.58166 7.72476 9.52908 8.0815 9.10747C8.43824 8.68586 8.38566 8.05488 7.96406 7.69814L6.22988 6.23076L17.5 6.23076C18.0523 6.23076 18.5 5.78305 18.5 5.23076C18.5 4.67848 18.0523 4.23076 17.5 4.23076L6.22987 4.23076L7.96406 2.76338Z" fill="black"/>
</svg>
