<svg width="14" height="14" viewBox="0 0 14 14" fill="none" xmlns="http://www.w3.org/2000/svg">
<g id="ant-design:copyright-circle-outlined">
<path id="Vector" d="M7 1.31287C3.85918 1.31287 1.3125 3.85955 1.3125 7.00037C1.3125 10.1412 3.85918 12.6879 7 12.6879C10.1408 12.6879 12.6875 10.1412 12.6875 7.00037C12.6875 3.85955 10.1408 1.31287 7 1.31287ZM7 11.723C4.39238 11.723 2.27734 9.60798 2.27734 7.00037C2.27734 4.39275 4.39238 2.27771 7 2.27771C9.60762 2.27771 11.7227 4.39275 11.7227 7.00037C11.7227 9.60798 9.60762 11.723 7 11.723ZM7.07109 4.96023C7.74395 4.96023 8.20098 5.38933 8.25176 6.01902C8.25557 6.07234 8.3 6.11296 8.35332 6.11296H9.07314C9.10615 6.11296 9.13281 6.0863 9.13281 6.0533C9.13281 4.95261 8.26445 4.18201 7.06729 4.18201C5.67207 4.18201 4.86719 5.124 4.86719 6.68044V7.34441C4.86719 8.88943 5.67207 9.81873 7.06729 9.81873C8.26064 9.81873 9.13281 9.07224 9.13281 8.02361C9.13281 7.9906 9.10615 7.96394 9.07314 7.96394H8.35205C8.29873 7.96394 8.25557 8.00457 8.25049 8.05662C8.19717 8.64187 7.74141 9.04431 7.06982 9.04431C6.24082 9.04431 5.77363 8.43621 5.77363 7.34822V6.68044C5.7749 5.57595 6.24336 4.96023 7.07109 4.96023Z" fill="#FBFBFB"/>
</g>
</svg>
