<svg width="18" height="14" viewBox="0 0 18 14" fill="none" xmlns="http://www.w3.org/2000/svg">
<path fill-rule="evenodd" clip-rule="evenodd" d="M0 1.00012C0 0.447837 0.447715 0.00012207 1 0.00012207H16.9999C17.5522 0.00012207 17.9999 0.447837 17.9999 1.00012C17.9999 1.55241 17.5522 2.00012 16.9999 2.00012H1C0.447715 2.00012 0 1.55241 0 1.00012ZM1.00013 6.01624L17 6.01624C17.5523 6.01624 18 6.46395 18 7.01624C18 7.56852 17.5523 8.01624 17 8.01624L1.00013 8.01624C0.447848 8.01624 0.00013274 7.56852 0.00013268 7.01624C0.00013262 6.46395 0.447848 6.01624 1.00013 6.01624ZM0 13.0001C0 12.4478 0.447715 12.0001 1 12.0001H16.9999C17.5522 12.0001 17.9999 12.4478 17.9999 13.0001C17.9999 13.5524 17.5522 14.0001 16.9999 14.0001H1C0.447715 14.0001 0 13.5524 0 13.0001Z" fill="#6DE0F6"/>
</svg>
